<svg width="128" height="128" viewBox="0 0 128 128" fill="none" xmlns="http://www.w3.org/2000/svg">
<path d="M85.9724 78.9997C83.7748 78.5621 82.1765 77.5279 81.1776 75.897C80.1787 74.2263 79.6793 72.3567 79.6793 70.2882C79.6793 70.0495 79.6793 69.8108 79.6793 69.5722C79.6793 69.3335 79.6992 69.0948 79.7392 68.8561C80.1787 65.3954 81.3175 62.4518 83.1555 60.0253C84.9934 57.559 87.2709 55.5502 89.988 53.9988C92.7449 52.4077 95.7017 51.2143 98.8582 50.4187C102.055 49.5834 105.191 49.0862 108.268 48.9271C108.468 48.8873 108.667 48.8674 108.867 48.8674C109.067 48.8674 109.267 48.8674 109.467 48.8674C111.305 48.8674 113.123 48.9867 114.921 49.2254C116.719 49.4641 118.537 49.5834 120.375 49.5834C120.694 49.5834 120.994 49.5834 121.274 49.5834C121.553 49.5834 121.833 49.5635 122.113 49.5237C122.592 49.484 122.972 49.4243 123.252 49.3447C123.531 49.2652 123.871 49.0862 124.27 48.8077C124.31 48.8077 124.33 48.8077 124.33 48.8077C124.37 48.7679 124.41 48.748 124.45 48.748C124.57 48.748 124.63 48.8276 124.63 48.9867C124.63 49.1856 124.51 49.4044 124.27 49.6431C123.271 50.5182 122.333 51.2143 121.453 51.7314C120.574 52.2486 119.436 52.5071 118.037 52.5071C117.797 52.5071 117.538 52.5071 117.258 52.5071C117.018 52.4673 116.779 52.4276 116.539 52.3878C114.621 52.1491 112.703 51.99 110.785 51.9104C108.867 51.8309 106.949 51.7911 105.031 51.7911C102.874 51.7911 100.736 51.9303 98.6185 52.2088C96.5008 52.4872 94.483 53.0441 92.5651 53.8795C90.6872 54.6751 88.9691 55.9281 87.4108 57.6386C85.9324 59.2695 84.7337 61.2783 83.8147 63.665C82.8957 66.0518 82.4362 68.3589 82.4362 70.5865C82.4362 72.2174 82.696 73.6694 83.2154 74.9423C83.7748 76.2152 84.7537 77.3091 86.1522 78.224C86.3919 78.3831 86.5118 78.5422 86.5118 78.7014C86.5118 78.9003 86.3919 78.9997 86.1522 78.9997H85.9724ZM64.0364 111.041C62.6779 111.041 61.2595 110.882 59.7811 110.564C58.3426 110.246 57.0041 109.729 55.7655 109.013C54.5268 108.297 53.5279 107.362 52.7688 106.208C52.0096 105.055 51.63 103.662 51.63 102.032C51.63 101.196 51.7699 100.361 52.0495 99.5255C52.2893 98.7299 52.6089 97.9542 53.0085 97.1984C54.1273 95.2891 55.6456 93.678 57.5635 92.3653C59.4414 91.0128 61.4792 89.899 63.6768 89.0239C65.9144 88.109 68.052 87.4129 70.0898 86.9355C72.7269 86.2991 75.4239 85.9013 78.1809 85.7422C80.9778 85.5831 83.7148 85.5035 86.3919 85.5035H89.2688C89.5884 85.5035 89.7482 85.603 89.7482 85.8018C89.7482 86.1996 89.5485 86.4383 89.1489 86.5179H87.5906C86.8714 86.5179 86.1522 86.5378 85.433 86.5775C84.7537 86.5775 84.0545 86.5974 83.3353 86.6372C81.2176 86.7168 79.0799 86.8759 76.9223 87.1145C74.7647 87.3134 72.647 87.6714 70.5692 88.1886C69.1308 88.5466 67.5126 89.0836 65.7146 89.7996C63.9165 90.4758 62.1984 91.351 60.5602 92.425C58.962 93.4592 57.6434 94.6725 56.6046 96.0647C55.5257 97.4968 54.9863 99.1277 54.9863 100.958C54.9863 102.867 55.5657 104.438 56.7244 105.671C57.8832 106.904 59.3016 107.799 60.9798 108.356C62.6979 108.953 64.376 109.251 66.0142 109.251C67.173 109.251 68.2917 109.152 69.3706 108.953C70.4893 108.754 71.5881 108.496 72.667 108.177C75.1043 107.422 77.5216 106.129 79.919 104.299C82.3164 102.469 84.5939 100.341 86.7515 97.9144C88.9091 95.5277 90.847 93.0614 92.5651 90.5156C94.3232 87.9698 95.7616 85.603 96.8804 83.4151C98.7584 79.7555 100.596 76.076 102.394 72.3766C104.232 68.6374 106.07 64.9181 107.908 61.2186C107.948 61.1391 108.088 60.8408 108.328 60.3236C108.608 59.8065 108.907 59.2297 109.227 58.5933C109.547 57.917 109.826 57.3402 110.066 56.8629C110.306 56.3855 110.446 56.127 110.486 56.0872C111.245 55.2916 111.984 54.9137 112.703 54.9535C113.462 54.9535 114.301 54.8938 115.22 54.7745C115.979 54.695 116.419 54.5358 116.539 54.2972C116.699 54.0187 116.898 53.8795 117.138 53.8795C117.378 53.8795 117.498 53.959 117.498 54.1182C117.498 54.1977 117.458 54.3171 117.378 54.4762C116.259 56.0673 115.22 57.7181 114.261 59.4286C113.302 61.1391 112.323 62.8297 111.325 64.5004C109.846 67.1656 108.348 69.8108 106.83 72.4362C105.311 75.0616 103.793 77.7069 102.275 80.3721C101.395 81.9234 100.516 83.4748 99.6374 85.0262C98.7584 86.5775 97.8394 88.109 96.8804 89.6206C94.8027 92.962 92.2854 96.1045 89.3287 99.0481C86.4119 102.032 83.1555 104.557 79.5594 106.626C76.0033 108.694 72.2075 110.047 68.1719 110.683C66.8134 110.922 65.4349 111.041 64.0364 111.041ZM96.8205 79.298C96.7006 79.298 96.6407 79.2185 96.6407 79.0594C96.6407 78.94 96.6407 78.8207 96.6407 78.7014C96.6806 78.582 96.7206 78.4627 96.7605 78.3434C97.2001 76.5931 97.4198 74.8826 97.4198 73.2119C97.4198 72.8937 97.3998 72.476 97.3599 71.9589C97.3199 71.4418 97.2001 70.9644 97.0003 70.5268C96.8405 70.0893 96.5408 69.8705 96.1013 69.8705C95.7017 69.8705 95.442 69.9898 95.3221 70.2285C95.2422 70.4274 95.1223 70.5268 94.9625 70.5268C94.8826 70.5268 94.8426 70.4871 94.8426 70.4075L94.9026 70.1688C95.2222 69.5722 95.6618 69.055 96.2211 68.6175C96.8205 68.1799 97.4598 67.9611 98.139 67.9611C98.9781 67.9611 99.5175 68.2992 99.7573 68.9755C100.037 69.6119 100.177 70.2683 100.177 70.9445C100.177 72.1777 99.8771 73.4506 99.2778 74.7633C98.7184 76.076 98.159 77.2892 97.5996 78.403C97.5597 78.5224 97.4398 78.7014 97.24 78.94C97.0802 79.1787 96.9403 79.298 96.8205 79.298Z" />
<path d="M13.4331 70.1539C12.0181 70.1539 10.5829 69.9723 9.12751 69.6091C7.67208 69.2459 6.33794 68.681 5.12508 67.9143C3.91222 67.1879 2.92172 66.2396 2.15358 65.0693C1.42587 63.899 1.06201 62.4866 1.06201 60.8321C1.06201 59.7425 1.26415 58.5319 1.66844 57.2002C2.11315 55.8685 2.76001 54.8395 3.60901 54.1131C3.77072 53.9517 3.93244 53.871 4.09415 53.871C4.21544 53.871 4.27608 53.9315 4.27608 54.0526C4.27608 54.214 4.03351 54.557 3.54837 55.0816C3.10365 55.6062 2.8813 56.3528 2.8813 57.3213V57.866C3.24515 60.2066 4.1548 62.1234 5.61022 63.6165C7.06565 65.1096 8.82429 66.1992 10.8861 66.8852C12.948 67.5712 15.0503 67.9143 17.193 67.9143C18.2441 67.9143 19.3357 67.8335 20.4677 67.6721C21.5997 67.5107 22.6509 67.2282 23.6211 66.8247C26.4916 65.6141 29.3216 63.7578 32.1111 61.2558C34.9411 58.7942 37.6701 55.929 40.2979 52.6603C42.9258 49.3917 45.3919 45.9817 47.6963 42.4305C50.0412 38.8794 52.1839 35.4089 54.1245 32.0191C56.1055 28.6294 57.8439 25.6028 59.3398 22.9394C56.631 22.092 53.9021 21.2446 51.153 20.3971C48.4443 19.5093 45.6951 18.7829 42.9056 18.218C40.116 17.6127 37.2658 17.31 34.3549 17.31C31.9292 17.31 29.4226 17.6329 26.8352 18.2785C24.2478 18.8838 21.8423 19.8322 19.6187 21.1235C17.4356 22.4148 15.6567 24.0895 14.2821 26.1476C12.948 28.2057 12.2809 30.6673 12.2809 33.5324C12.2809 34.2588 12.3214 35.1062 12.4022 36.0747C12.5235 37.0029 12.7256 37.9109 13.0086 38.7987C13.3321 39.6865 13.797 40.4128 14.4034 40.9778C15.0099 41.5427 15.8184 41.8252 16.8291 41.8252C16.91 41.8252 16.9909 41.8454 17.0717 41.8858C17.193 41.8858 17.2536 41.9463 17.2536 42.0674C17.2536 42.1884 17.1324 42.2691 16.8898 42.3095C16.6876 42.3498 16.5461 42.37 16.4653 42.37C15.6163 42.37 14.7471 42.1682 13.8576 41.7647C12.3618 41.119 11.1894 40.1909 10.3404 38.9803C9.53179 37.7696 9.12751 36.3572 9.12751 34.7431C9.12751 31.8779 9.77436 29.3759 11.0681 27.2372C12.3618 25.0984 14.08 23.2623 16.2227 21.7288C18.3654 20.1953 20.7305 18.9645 23.3179 18.0364C25.9053 17.0679 28.5332 16.3617 31.2015 15.9178C33.8698 15.4739 36.3561 15.252 38.6606 15.252C42.5013 15.252 46.2813 15.7362 50.0008 16.7047C53.7606 17.6329 57.48 18.6014 61.159 19.6102C61.442 18.8838 61.9878 18.4803 62.7964 18.3996C63.6454 18.3189 64.3933 18.2785 65.0402 18.2785C65.8488 18.2785 66.3743 18.1171 66.6169 17.7943C66.8595 17.4311 67.1223 17.2495 67.4053 17.2495C67.6478 17.2495 67.7691 17.3504 67.7691 17.5521C67.7691 17.6329 67.6074 17.8952 67.284 18.3391C67.001 18.7829 66.6775 19.247 66.3137 19.7313C65.9902 20.1752 65.7679 20.4778 65.6466 20.6392H65.7073C65.7477 20.6392 65.7679 20.6594 65.7679 20.6998C66.253 20.7805 66.7382 20.8612 67.2233 20.9419C67.7085 21.0226 68.1936 21.063 68.6787 21.063C69.2447 21.063 69.6693 20.9823 69.9522 20.8208C70.2757 20.6594 70.498 20.5787 70.6193 20.5787C70.7406 20.5787 70.8012 20.6392 70.8012 20.7603C70.8012 20.9217 70.7406 21.063 70.6193 21.184C70.5385 21.2647 70.4374 21.3454 70.3161 21.4262C69.3458 22.1525 68.517 22.7175 67.8298 23.121C67.1829 23.5246 66.2126 23.7667 64.9189 23.8474C64.3529 25.9862 63.8071 28.1451 63.2815 30.3243C62.7964 32.5034 62.3113 34.6825 61.8261 36.8617C61.5027 38.4355 61.1995 40.0496 60.9165 41.7042C60.6739 43.3183 60.5526 44.9527 60.5526 46.6072C60.5526 47.1318 60.593 47.7977 60.6739 48.6047C60.7548 49.3715 60.9771 50.0575 61.341 50.6628C61.7048 51.2278 62.2708 51.5103 63.039 51.5103C63.9284 51.5103 64.9795 51.0865 66.1924 50.2391C67.4457 49.3917 68.7394 48.3626 70.0735 47.152C71.4077 45.9414 72.6205 44.7509 73.7121 43.5806C74.8441 42.4104 75.7335 41.5024 76.3804 40.8567C79.3721 37.8302 82.283 34.7229 85.113 31.5349C87.9429 28.3066 90.6112 24.9773 93.1178 21.5472C93.4008 21.184 93.8051 20.6191 94.3307 19.8523C94.8562 19.0453 95.4222 18.3189 96.0287 17.6732C96.6351 16.9872 97.1607 16.6442 97.6054 16.6442C97.8075 16.6442 98.1714 16.7451 98.6969 16.9468C99.2629 17.1082 99.7885 17.3302 100.274 17.6127C100.759 17.8548 101.022 18.0969 101.062 18.3391C101.062 18.3794 101.042 18.4198 101.001 18.4601C101.001 18.4601 101.001 18.4803 101.001 18.5206L98.5757 21.2446C97.9288 22.0113 97.3022 22.8184 96.6957 23.6658C96.0893 24.4729 95.4829 25.28 94.8764 26.0871C92.2082 29.8804 89.7824 33.8351 87.5993 37.9512C85.4162 42.0674 83.4352 46.2642 81.6563 50.5417C81.4946 50.9453 81.2925 51.4497 81.0499 52.055C80.8073 52.6603 80.686 53.2051 80.686 53.6894C80.686 54.214 80.9084 54.4763 81.3531 54.4763C81.717 54.4763 82.1212 54.335 82.5659 54.0526C83.0511 53.7701 83.4352 53.528 83.7182 53.3262C85.1332 52.3577 86.5482 51.4295 87.9632 50.5417C89.3782 49.6136 90.874 48.8469 92.4507 48.2416C92.4912 48.2416 92.6731 48.181 92.9965 48.06C93.32 47.9389 93.5019 47.8784 93.5423 47.8784C93.6636 47.8784 93.7444 47.9389 93.7849 48.06C93.8657 48.181 93.9062 48.2819 93.9062 48.3626C92.8954 48.8065 91.723 49.4522 90.3889 50.2996C89.0547 51.1067 87.7004 52.0147 86.3258 53.0235C84.9917 53.992 83.7384 55.0009 82.5659 56.0501C81.434 57.059 80.5445 58.0073 79.8977 58.8951C79.736 59.1776 79.5742 59.46 79.4125 59.7425C79.2912 59.9846 79.1497 60.2671 78.988 60.59C78.705 61.1146 78.321 61.4374 77.8358 61.5585C77.3911 61.7199 76.8857 61.8006 76.3197 61.8006C76.158 61.8006 75.774 61.7602 75.1675 61.6795C74.6015 61.5988 74.0558 61.4777 73.5302 61.3163C73.0046 61.1953 72.7418 61.0137 72.7418 60.7716C72.7418 60.5698 72.8025 60.2469 72.9238 59.803C73.045 59.3592 73.1663 58.9153 73.2876 58.4714C73.4493 58.0275 73.5504 57.7248 73.5908 57.5634C74.3994 55.3036 75.4101 53.0437 76.623 50.7839C77.8358 48.524 79.1497 46.3046 80.5647 44.1254C81.9797 41.9463 83.3341 39.868 84.6278 37.8907C85.1534 37.0836 85.679 36.2967 86.2045 35.53C86.7705 34.7229 87.2961 33.9158 87.7812 33.1087C88.1451 32.5437 88.327 31.999 88.327 31.4744C88.327 31.3937 88.3068 31.3129 88.2664 31.2322C88.2664 31.1112 88.2259 31.0506 88.1451 31.0506C87.9834 31.0506 87.8419 31.1515 87.7206 31.3533C86.912 32.2814 85.8002 33.5324 84.3852 35.1062C82.9702 36.6801 81.3935 38.3951 79.6551 40.2514C77.9167 42.0674 76.0974 43.9035 74.1972 45.7598C72.3375 47.5757 70.4778 49.2504 68.6181 50.7839C66.7988 52.3173 65.1008 53.5481 63.5241 54.4763C61.9474 55.4044 60.593 55.8685 59.461 55.8685C58.4503 55.8685 57.7024 55.5255 57.2173 54.8395C56.7321 54.1535 56.4087 53.3464 56.247 52.4182C56.1257 51.4497 56.065 50.5821 56.065 49.8154C56.065 47.838 56.2672 45.6589 56.6715 43.278C57.0758 40.8971 57.5609 38.5162 58.1269 36.1353C58.7333 33.714 59.2791 31.5349 59.7643 29.5979C58.0258 32.342 56.1863 35.2475 54.2458 38.3144C52.3052 41.341 50.2433 44.3675 48.0602 47.3941C45.877 50.4207 43.5322 53.306 41.0256 56.0501C38.5595 58.7538 35.8912 61.1549 33.0208 63.2533C30.1908 65.3921 27.1384 67.0668 23.8637 68.2774C20.6294 69.5284 17.1526 70.1539 13.4331 70.1539ZM41.2682 49.0285C41.1873 49.0285 41.1267 48.9881 41.0863 48.9074C41.0863 48.8267 41.0863 48.7662 41.0863 48.7258C41.0863 48.4837 41.1065 48.2617 41.1469 48.06C41.2278 47.8178 41.2884 47.5959 41.3288 47.3941C41.814 45.5782 42.2183 43.7017 42.5417 41.7647C42.8651 39.7873 43.0268 37.8705 43.0268 36.0142C43.0268 35.6914 43.0066 35.2475 42.9662 34.6825C42.9258 34.1176 42.8045 33.593 42.6023 33.1087C42.4406 32.6245 42.1172 32.3823 41.6321 32.3823C41.2278 32.3823 40.965 32.5438 40.8437 32.8666C40.7224 33.1491 40.5607 33.2903 40.3586 33.2903C40.2373 33.2903 40.1766 33.2298 40.1766 33.1087C40.1766 33.028 40.2171 32.9069 40.2979 32.7455C40.6618 31.9788 41.1873 31.2524 41.8746 30.5664C42.5619 29.8804 43.3503 29.5374 44.2397 29.5374C44.9674 29.5374 45.493 29.7795 45.8164 30.2637C46.1803 30.748 46.4026 31.3331 46.4835 32.0191C46.6048 32.6648 46.6654 33.2701 46.6654 33.8351C46.6654 36.1756 46.2005 38.5364 45.2706 40.9173C44.3408 43.2982 43.3705 45.5378 42.3598 47.6362C42.3193 47.7977 42.1576 48.0801 41.8746 48.4837C41.6321 48.8469 41.4299 49.0285 41.2682 49.0285Z" />
</svg>