<svg viewBox="0 0 40 40" fill="none" xmlns="http://www.w3.org/2000/svg">
<path d="M31.35 10.4167H33.6166C33.3 9.96666 32.9666 9.55 32.6166 9.13333L31.35 10.4167Z"/>
<path d="M30.8667 7.36667C30.45 7.01667 30.0334 6.68334 29.5834 6.36667V8.63334L30.8667 7.36667Z"/>
<path d="M32.6334 9.13333L37.55 4.21666C38.0334 3.73333 38.0334 2.93333 37.55 2.44999C37.0667 1.96666 36.2667 1.96666 35.7834 2.44999L30.8667 7.36666C31.5 7.91666 32.0834 8.51666 32.6334 9.13333Z"/>
<path d="M29.5833 5C29.5833 4.31667 29.0166 3.75 28.3333 3.75C27.6666 3.75 27.1333 4.28333 27.1 4.93333C27.9666 5.35 28.8 5.81667 29.5833 6.36667V5Z"/>
<path d="M36.25 11.6667C36.25 10.9833 35.6834 10.4167 35 10.4167H33.6167C34.1667 11.2 34.65 12.0333 35.05 12.9C35.7167 12.8667 36.25 12.3333 36.25 11.6667Z"/>
<path d="M21.25 24.5833H21.75C22.4 24.5833 22.9167 24 22.9167 23.2833C22.9167 22.3833 22.6667 22.25 22.1 22.05L21.25 21.75V24.5833Z"/>
<path d="M35.0667 12.9C35.05 12.9 35.0334 12.9167 35 12.9167H28.3334C28.1667 12.9167 28.0167 12.8833 27.85 12.8167C27.55 12.6833 27.3 12.45 27.1667 12.1333C27.1167 11.9833 27.0834 11.8333 27.0834 11.6667V5.00001C27.0834 4.98334 27.1 4.96668 27.1 4.93334C24.9334 3.91668 22.5334 3.33334 20 3.33334C10.8 3.33334 3.33337 10.8 3.33337 20C3.33337 29.2 10.8 36.6667 20 36.6667C29.2 36.6667 36.6667 29.2 36.6667 20C36.6667 17.4667 36.0834 15.0667 35.0667 12.9ZM22.9167 19.7C23.9834 20.0667 25.4167 20.85 25.4167 23.3C25.4167 25.3833 23.7667 27.1 21.75 27.1H21.25V27.5167C21.25 28.2 20.6834 28.7667 20 28.7667C19.3167 28.7667 18.75 28.2 18.75 27.5167V27.1H18.6167C16.4 27.1 14.5834 25.2333 14.5834 22.9333C14.5834 22.2333 15.15 21.6667 15.8334 21.6667C16.5167 21.6667 17.0834 22.2333 17.0834 22.9167C17.0834 23.8333 17.7667 24.5833 18.6167 24.5833H18.75V20.8833L17.0834 20.3C16.0167 19.9333 14.5834 19.15 14.5834 16.7C14.5834 14.6167 16.2334 12.9 18.25 12.9H18.75V12.5C18.75 11.8167 19.3167 11.25 20 11.25C20.6834 11.25 21.25 11.8167 21.25 12.5V12.9167H21.3834C23.6 12.9167 25.4167 14.7833 25.4167 17.0833C25.4167 17.7667 24.85 18.3333 24.1667 18.3333C23.4834 18.3333 22.9167 17.7667 22.9167 17.0833C22.9167 16.1667 22.2334 15.4167 21.3834 15.4167H21.25V19.1167L22.9167 19.7Z"/>
<path d="M17.0834 16.7167C17.0834 17.6167 17.3334 17.75 17.9 17.95L18.75 18.25V15.4167H18.25C17.6167 15.4167 17.0834 16 17.0834 16.7167Z"/>
</svg>
